<mxfile host="app.diagrams.net" modified="2024-03-25T14:25:00.213Z" agent="Mozilla/5.0 (Macintosh; Intel Mac OS X 10.15; rv:124.0) Gecko/20100101 Firefox/124.0" etag="I0jD1YpYrqTltGc2G5iS" version="24.1.0" type="device">
  <diagram name="Page-1" id="58cdce13-f638-feb5-8d6f-7d28b1aa9fa0">
    <mxGraphModel dx="1035" dy="644" grid="1" gridSize="10" guides="1" tooltips="1" connect="1" arrows="1" fold="1" page="1" pageScale="1" pageWidth="1100" pageHeight="850" background="none" math="0" shadow="0">
      <root>
        <mxCell id="0" />
        <mxCell id="1" parent="0" />
        <mxCell id="382b91b5511bd0f7-1" value="" style="ellipse;html=1;shape=startState;fillColor=#000000;strokeColor=#ff0000;rounded=1;shadow=0;comic=0;labelBackgroundColor=none;fontFamily=Verdana;fontSize=12;fontColor=#000000;align=center;direction=south;" parent="1" vertex="1">
          <mxGeometry x="130" y="135" width="30" height="30" as="geometry" />
        </mxCell>
        <mxCell id="382b91b5511bd0f7-5" value="Resting" style="rounded=1;whiteSpace=wrap;html=1;arcSize=24;fillColor=#ffffc0;strokeColor=#ff0000;shadow=0;comic=0;labelBackgroundColor=none;fontFamily=Verdana;fontSize=12;fontColor=#000000;align=center;" parent="1" vertex="1">
          <mxGeometry x="240" y="310" width="120" height="60" as="geometry" />
        </mxCell>
        <mxCell id="382b91b5511bd0f7-6" value="Idle" style="rounded=1;whiteSpace=wrap;html=1;arcSize=24;fillColor=#ffffc0;strokeColor=#ff0000;shadow=0;comic=0;labelBackgroundColor=none;fontFamily=Verdana;fontSize=12;fontColor=#000000;align=center;" parent="1" vertex="1">
          <mxGeometry x="240" y="120" width="120" height="60" as="geometry" />
        </mxCell>
        <mxCell id="3cde6dad864a17aa-4" value="&lt;font style=&quot;font-size: 10px;&quot;&gt;tooHungry(hungerValue)&lt;/font&gt;" style="edgeStyle=orthogonalEdgeStyle;html=1;exitX=1;exitY=0.5;entryX=0.75;entryY=0;labelBackgroundColor=none;endArrow=open;endSize=8;strokeColor=#ff0000;fontFamily=Verdana;fontSize=12;align=left;exitDx=0;exitDy=0;entryDx=0;entryDy=0;" parent="1" source="382b91b5511bd0f7-6" target="382b91b5511bd0f7-9" edge="1">
          <mxGeometry x="-0.2647" y="-10" relative="1" as="geometry">
            <Array as="points">
              <mxPoint x="880" y="150" />
            </Array>
            <mxPoint as="offset" />
          </mxGeometry>
        </mxCell>
        <mxCell id="3cde6dad864a17aa-13" style="edgeStyle=elbowEdgeStyle;html=1;exitX=1;exitY=0.75;entryX=0;entryY=0.75;labelBackgroundColor=none;endArrow=open;endSize=8;strokeColor=#ff0000;fontFamily=Verdana;fontSize=12;align=left;exitDx=0;exitDy=0;entryDx=0;entryDy=0;" parent="1" source="382b91b5511bd0f7-10" target="382b91b5511bd0f7-9" edge="1">
          <mxGeometry relative="1" as="geometry" />
        </mxCell>
        <mxCell id="382b91b5511bd0f7-9" value="&lt;div&gt;Eat&lt;/div&gt;" style="rounded=1;whiteSpace=wrap;html=1;arcSize=24;fillColor=#ffffc0;strokeColor=#ff0000;shadow=0;comic=0;labelBackgroundColor=none;fontFamily=Verdana;fontSize=12;fontColor=#000000;align=center;" parent="1" vertex="1">
          <mxGeometry x="790" y="310" width="120" height="60" as="geometry" />
        </mxCell>
        <mxCell id="382b91b5511bd0f7-10" value="Hunting" style="rounded=1;whiteSpace=wrap;html=1;arcSize=24;fillColor=#ffffc0;strokeColor=#ff0000;shadow=0;comic=0;labelBackgroundColor=none;fontFamily=Verdana;fontSize=12;fontColor=#000000;align=center;" parent="1" vertex="1">
          <mxGeometry x="520" y="310" width="120" height="60" as="geometry" />
        </mxCell>
        <mxCell id="2a3bc250acf0617d-9" style="edgeStyle=orthogonalEdgeStyle;html=1;labelBackgroundColor=none;endArrow=open;endSize=8;strokeColor=#ff0000;fontFamily=Verdana;fontSize=12;align=left;exitX=0.495;exitY=0.153;exitDx=0;exitDy=0;exitPerimeter=0;" parent="1" source="382b91b5511bd0f7-1" target="382b91b5511bd0f7-6" edge="1">
          <mxGeometry relative="1" as="geometry" />
        </mxCell>
        <mxCell id="2a3bc250acf0617d-10" value="&lt;font style=&quot;font-size: 10px;&quot;&gt;toHunt(prey)&lt;/font&gt;" style="edgeStyle=orthogonalEdgeStyle;html=1;labelBackgroundColor=none;endArrow=open;endSize=8;strokeColor=#ff0000;fontFamily=Verdana;fontSize=12;align=left;entryX=0.5;entryY=0;entryDx=0;entryDy=0;" parent="1" source="382b91b5511bd0f7-6" target="382b91b5511bd0f7-10" edge="1">
          <mxGeometry x="0.0526" y="10" relative="1" as="geometry">
            <Array as="points">
              <mxPoint x="330" y="230" />
              <mxPoint x="580" y="230" />
            </Array>
            <mxPoint x="440" y="230" as="targetPoint" />
            <mxPoint as="offset" />
          </mxGeometry>
        </mxCell>
        <mxCell id="2a3bc250acf0617d-12" value="&lt;font style=&quot;font-size: 10px;&quot;&gt;tooTired(restValue)&lt;/font&gt;" style="edgeStyle=orthogonalEdgeStyle;html=1;exitX=0.25;exitY=1;entryX=0.25;entryY=0;labelBackgroundColor=none;endArrow=open;endSize=8;strokeColor=#ff0000;fontFamily=Verdana;fontSize=12;align=left;exitDx=0;exitDy=0;entryDx=0;entryDy=0;" parent="1" source="382b91b5511bd0f7-6" target="382b91b5511bd0f7-5" edge="1">
          <mxGeometry x="0.0769" y="-110" relative="1" as="geometry">
            <mxPoint as="offset" />
          </mxGeometry>
        </mxCell>
        <mxCell id="2a3bc250acf0617d-13" style="edgeStyle=orthogonalEdgeStyle;html=1;exitX=1;exitY=0.5;entryX=0;entryY=0.5;labelBackgroundColor=none;endArrow=open;endSize=8;strokeColor=#ff0000;fontFamily=Verdana;fontSize=12;align=left;" parent="1" source="382b91b5511bd0f7-5" target="382b91b5511bd0f7-10" edge="1">
          <mxGeometry relative="1" as="geometry" />
        </mxCell>
        <mxCell id="3cde6dad864a17aa-8" style="edgeStyle=elbowEdgeStyle;html=1;labelBackgroundColor=none;endArrow=open;endSize=8;strokeColor=#ff0000;fontFamily=Verdana;fontSize=12;align=left;exitX=0.25;exitY=1;entryX=0;entryY=0.5;entryDx=0;entryDy=0;" parent="1" source="382b91b5511bd0f7-5" target="fSQ_3Fs_ivyJlsFF_27i-9" edge="1">
          <mxGeometry relative="1" as="geometry">
            <mxPoint x="350" y="515" as="sourcePoint" />
            <mxPoint x="520" y="470" as="targetPoint" />
            <Array as="points">
              <mxPoint x="270" y="430" />
            </Array>
          </mxGeometry>
        </mxCell>
        <mxCell id="fSQ_3Fs_ivyJlsFF_27i-1" value="toIdle()" style="edgeStyle=orthogonalEdgeStyle;html=1;exitX=0.992;exitY=0.15;labelBackgroundColor=none;endArrow=open;endSize=8;strokeColor=#ff0000;fontFamily=Verdana;fontSize=12;align=left;exitDx=0;exitDy=0;exitPerimeter=0;entryX=0.992;entryY=0.15;entryDx=0;entryDy=0;entryPerimeter=0;" edge="1" parent="1" target="382b91b5511bd0f7-6">
          <mxGeometry x="0.2466" y="-10" relative="1" as="geometry">
            <Array as="points">
              <mxPoint x="900" y="130" />
              <mxPoint x="370" y="130" />
            </Array>
            <mxPoint x="900" y="310" as="sourcePoint" />
            <mxPoint x="380" y="130" as="targetPoint" />
            <mxPoint as="offset" />
          </mxGeometry>
        </mxCell>
        <mxCell id="fSQ_3Fs_ivyJlsFF_27i-2" value="toRest()" style="endArrow=none;html=1;rounded=0;fillColor=#f8cecc;strokeColor=#b85450;" edge="1" parent="1">
          <mxGeometry x="0.2308" y="10" width="50" height="50" relative="1" as="geometry">
            <mxPoint x="320" y="280" as="sourcePoint" />
            <mxPoint x="840" y="280" as="targetPoint" />
            <mxPoint as="offset" />
          </mxGeometry>
        </mxCell>
        <mxCell id="fSQ_3Fs_ivyJlsFF_27i-3" value="" style="endArrow=none;html=1;rounded=0;fillColor=#f8cecc;strokeColor=#b85450;" edge="1" parent="1">
          <mxGeometry width="50" height="50" relative="1" as="geometry">
            <mxPoint x="840" y="310" as="sourcePoint" />
            <mxPoint x="840" y="280" as="targetPoint" />
          </mxGeometry>
        </mxCell>
        <mxCell id="fSQ_3Fs_ivyJlsFF_27i-4" value="" style="endArrow=open;html=1;rounded=0;endFill=0;entryX=0.663;entryY=0.021;entryDx=0;entryDy=0;entryPerimeter=0;fillColor=#f8cecc;strokeColor=#b85450;" edge="1" parent="1" target="382b91b5511bd0f7-5">
          <mxGeometry width="50" height="50" relative="1" as="geometry">
            <mxPoint x="320" y="280" as="sourcePoint" />
            <mxPoint x="370" y="230" as="targetPoint" />
          </mxGeometry>
        </mxCell>
        <mxCell id="fSQ_3Fs_ivyJlsFF_27i-5" value="noTiredness" style="endArrow=open;html=1;rounded=0;exitX=0.5;exitY=0;exitDx=0;exitDy=0;endFill=0;fillColor=#f8cecc;strokeColor=#b85450;strokeWidth=1;" edge="1" parent="1" source="382b91b5511bd0f7-5" target="382b91b5511bd0f7-6">
          <mxGeometry x="-0.0769" y="-40" width="50" height="50" relative="1" as="geometry">
            <mxPoint x="290" y="310" as="sourcePoint" />
            <mxPoint x="340" y="260" as="targetPoint" />
            <mxPoint as="offset" />
          </mxGeometry>
        </mxCell>
        <mxCell id="fSQ_3Fs_ivyJlsFF_27i-7" style="edgeStyle=elbowEdgeStyle;html=1;labelBackgroundColor=none;endArrow=open;endSize=8;strokeColor=#ff0000;fontFamily=Verdana;fontSize=12;align=left;exitX=0.25;exitY=1;entryX=0.5;entryY=0;entryDx=0;entryDy=0;" edge="1" parent="1" target="fSQ_3Fs_ivyJlsFF_27i-9">
          <mxGeometry relative="1" as="geometry">
            <mxPoint x="580" y="370" as="sourcePoint" />
            <mxPoint x="580" y="440" as="targetPoint" />
            <Array as="points">
              <mxPoint x="580" y="430" />
            </Array>
          </mxGeometry>
        </mxCell>
        <mxCell id="fSQ_3Fs_ivyJlsFF_27i-8" style="edgeStyle=elbowEdgeStyle;html=1;labelBackgroundColor=none;endArrow=open;endSize=8;strokeColor=#ff0000;fontFamily=Verdana;fontSize=12;align=left;exitX=0.137;exitY=1.021;entryX=1;entryY=0.5;entryDx=0;entryDy=0;exitDx=0;exitDy=0;exitPerimeter=0;" edge="1" parent="1" source="382b91b5511bd0f7-9">
          <mxGeometry relative="1" as="geometry">
            <mxPoint x="804.6600000000001" y="375" as="sourcePoint" />
            <mxPoint x="594.9999999999998" y="475" as="targetPoint" />
            <Array as="points">
              <mxPoint x="804.6600000000001" y="435" />
            </Array>
          </mxGeometry>
        </mxCell>
        <mxCell id="fSQ_3Fs_ivyJlsFF_27i-9" value="" style="ellipse;html=1;shape=endState;fillColor=#000000;strokeColor=#ff0000;" vertex="1" parent="1">
          <mxGeometry x="565" y="460" width="30" height="30" as="geometry" />
        </mxCell>
        <mxCell id="fSQ_3Fs_ivyJlsFF_27i-12" value="toEat(food)" style="endArrow=none;html=1;rounded=0;fillColor=#f8cecc;strokeColor=#b85450;" edge="1" parent="1">
          <mxGeometry x="0.2308" y="10" width="50" height="50" relative="1" as="geometry">
            <mxPoint x="320" y="400" as="sourcePoint" />
            <mxPoint x="840" y="400" as="targetPoint" />
            <mxPoint as="offset" />
          </mxGeometry>
        </mxCell>
        <mxCell id="fSQ_3Fs_ivyJlsFF_27i-14" value="" style="endArrow=none;html=1;rounded=0;fillColor=#f8cecc;strokeColor=#b85450;" edge="1" parent="1">
          <mxGeometry width="50" height="50" relative="1" as="geometry">
            <mxPoint x="320" y="400" as="sourcePoint" />
            <mxPoint x="320" y="370" as="targetPoint" />
          </mxGeometry>
        </mxCell>
        <mxCell id="fSQ_3Fs_ivyJlsFF_27i-15" value="" style="endArrow=open;html=1;rounded=0;endFill=0;entryX=0.663;entryY=0.021;entryDx=0;entryDy=0;entryPerimeter=0;fillColor=#f8cecc;strokeColor=#b85450;" edge="1" parent="1">
          <mxGeometry width="50" height="50" relative="1" as="geometry">
            <mxPoint x="840" y="401" as="sourcePoint" />
            <mxPoint x="840" y="370" as="targetPoint" />
          </mxGeometry>
        </mxCell>
      </root>
    </mxGraphModel>
  </diagram>
</mxfile>
